<svg width="111" height="190" viewBox="0 0 111 190" fill="none" xmlns="http://www.w3.org/2000/svg">
<g id="undraw multitasking hqg3 1">
<g id="coin 3">
<path id="Vector" d="M83 190C96.255 190 107 179.255 107 166C107 152.745 96.255 142 83 142C69.745 142 59 152.745 59 166C59 179.255 69.745 190 83 190Z" fill="#FFD700"/>
<path id="Vector 2" opacity="0.1" d="M83 186.64C94.399 186.64 103.64 177.399 103.64 166C103.64 154.601 94.399 145.36 83 145.36C71.601 145.36 62.36 154.601 62.36 166C62.36 177.399 71.601 186.64 83 186.64Z" fill="black"/>
<path id="Vector 3" d="M82.011 178.18V175.175C80.492 175.146 78.921 174.61 78.005 173.867L78.633 171.874C79.722 172.69 81.043 173.138 82.404 173.153C84.263 173.153 85.519 171.933 85.519 170.238C85.519 168.602 84.498 167.591 82.561 166.698C79.89 165.509 78.241 164.14 78.241 161.553C78.241 159.084 79.786 157.21 82.194 156.764V153.76H83.818V156.645C85.028 156.662 86.209 157.023 87.221 157.686L86.567 159.649C85.595 158.984 84.445 158.632 83.268 158.638C81.252 158.638 80.492 160.006 80.492 161.196C80.492 162.743 81.461 163.516 83.739 164.587C86.436 165.836 87.797 167.383 87.797 170.03C87.797 172.379 86.357 174.581 83.66 175.086V178.18H82.011Z" fill="white"/>
</g>
<g id="coin 2">
<path id="Vector 4" d="M25.5 145C39.583 145 51 133.583 51 119.5C51 105.417 39.583 94 25.5 94C11.417 94 0 105.417 0 119.5C0 133.583 11.417 145 25.5 145Z" fill="#FFD700"/>
<path id="Vector 5" opacity="0.1" d="M25.5 141.43C37.612 141.43 47.43 131.612 47.43 119.5C47.43 107.388 37.612 97.57 25.5 97.57C13.388 97.57 3.57001 107.388 3.57001 119.5C3.57001 131.612 13.388 141.43 25.5 141.43Z" fill="black"/>
<path id="Vector 6" d="M24.449 132.441V129.249C22.836 129.217 21.167 128.648 20.193 127.858L20.861 125.741C22.018 126.608 23.421 127.084 24.866 127.1C26.842 127.1 28.177 125.804 28.177 124.003C28.177 122.265 27.092 121.19 25.033 120.242C22.196 118.978 20.443 117.524 20.443 114.775C20.443 112.152 22.085 110.161 24.644 109.687V106.495H26.369V109.56C27.655 109.578 28.909 109.962 29.985 110.667L29.29 112.752C28.258 112.046 27.035 111.671 25.784 111.678C23.643 111.678 22.836 113.131 22.836 114.396C22.836 116.039 23.865 116.861 26.285 117.998C29.151 119.326 30.597 120.969 30.597 123.782C30.597 126.278 29.067 128.617 26.202 129.154V132.441H24.449Z" fill="white"/>
</g>
<g id="coin 1">
<path id="Vector 7" d="M71 80C93.091 80 111 62.091 111 40C111 17.909 93.091 0 71 0C48.909 0 31 17.909 31 40C31 62.091 48.909 80 71 80Z" fill="#FFD700"/>
<path id="Vector 8" opacity="0.1" d="M71 74.4C89.999 74.4 105.4 58.999 105.4 40C105.4 21.001 89.999 5.60001 71 5.60001C52.001 5.60001 36.6 21.001 36.6 40C36.6 58.999 52.001 74.4 71 74.4Z" fill="black"/>
<path id="Vector 9" d="M69.352 60.299V55.292C66.821 55.243 64.202 54.35 62.675 53.111L63.722 49.79C65.537 51.15 67.738 51.896 70.006 51.921C73.104 51.921 75.199 49.889 75.199 47.063C75.199 44.337 73.497 42.651 70.268 41.164C65.817 39.181 63.068 36.901 63.068 32.588C63.068 28.473 65.643 25.35 69.657 24.607V19.6H72.363V24.409C74.38 24.436 76.348 25.038 78.036 26.144L76.944 29.415C75.326 28.307 73.408 27.719 71.446 27.73C68.086 27.73 66.821 30.01 66.821 31.993C66.821 34.571 68.435 35.86 72.232 37.645C76.726 39.727 78.996 42.304 78.996 46.716C78.996 50.632 76.595 54.301 72.101 55.143V60.299H69.352Z" fill="white"/>
</g>
</g>
</svg>
