<svg viewBox="0 0 945 776" fill="none" xmlns="http://www.w3.org/2000/svg">
<g id="hiker-man-colour 1">
<g clip-path="url(#clip0)">
<g id="Layer 2">
<g id="vector">
<path id="Vector" d="M264 725.66C350.18 666 514.51 578.47 671.74 518C674.527 515.507 677.36 512.993 680.24 510.46C744.66 453.51 974.97 423.22 862.5 299C837.5 212 785.79 142.28 705.73 96.56C625.67 51 531 44.19 436.15 44C341.3 43.81 219.28 45.05 172 96.56C124.94 147.92 152.62 249.69 145.48 337.91C138.34 426.13 65.06 513.21 88 588C106.75 649.55 209.56 700.68 264 725.66Z" fill="#F8F8F8"/>
<g id="folha_2">
<path id="Vector_2" d="M730.92 496.42C722.57 493.56 695.25 457.42 695.25 414.53C695.25 364.7 747.96 270.38 752.97 236.78C756.16 215.41 770.55 27.14 879.83 27.14C939.42 27.14 944.39 143.65 944.39 195.76C944.39 317.49 767.39 421.18 767.39 484.41C755.533 489.272 743.346 493.286 730.92 496.42V496.42Z" fill="#574B90"/>
<path id="Vector_3" d="M744.36 491.9C744.36 394.28 817.21 216.42 881.29 153.83" stroke="#655B97" stroke-width="4" stroke-miterlimit="10" stroke-linecap="round"/>
</g>
<path id="Vector_4" d="M323.68 687.41C318.1 685.75 302.93 666.41 302.93 641.49C302.93 617.49 309.67 582.49 309.67 550.02C309.67 531.96 302.93 525.56 302.93 504.07C302.93 469.82 335.39 459.39 346.77 459.39C363.52 459.39 372.48 473.72 372.48 481.31C372.48 491.9 369.48 499.94 369.48 511.66C369.48 534.57 377.48 537.44 376.64 557.18C374.14 614.89 350.18 671.31 329.12 684.11L323.68 687.41Z" fill="#655B97"/>
<g id="folha_1">
<path id="Vector_5" d="M323.68 687.41C330.52 681.51 292.22 494.91 259 461.89C222.86 426 193.15 407 183.34 395.22C165.94 374.33 154.86 295.55 78.27 295.55C58.01 295.55 10.27 312.3 1.68003 383.19C-1.12997 406.46 -6.23997 442.06 42.19 493.65C74.81 528.41 115.61 516.44 155.49 554.1C184.2 581.21 180.18 622.1 206.99 656.65C228.44 684.25 284.13 721.48 323.68 687.41Z" fill="#574B90"/>
<path id="Vector_6" d="M314.28 691.86C314.28 645.03 166.55 433.67 107.44 403.44" stroke="#655B97" stroke-width="4" stroke-miterlimit="10" stroke-linecap="round"/>
</g>
<path id="Vector_7" d="M323.68 687.41C322.21 676.31 316.01 582.01 333.58 547.65" stroke="#574B90" stroke-width="4" stroke-linecap="round" stroke-linejoin="round"/>
<path id="Vector_8" d="M207 774C251.21 710.87 646.14 495.49 883.39 455.7" stroke="#6D6D6D" stroke-width="3" stroke-miterlimit="10" stroke-linecap="round"/>
<path id="Vector_9" d="M548.62 112.93H452.69C446.063 112.93 440.69 118.303 440.69 124.93V323.91C440.69 330.537 446.063 335.91 452.69 335.91H548.62C555.247 335.91 560.62 330.537 560.62 323.91V124.93C560.62 118.303 555.247 112.93 548.62 112.93Z" fill="#FD8369"/>
<path id="Vector_10" d="M451 700.49V726.49H380.4V715.49L424.14 695.4L451 700.49Z" fill="#333333"/>
<path id="Vector_11" d="M604.15 675.56C607.72 683.56 616.15 704.29 616.15 704.29L580.92 726.44H549L545.26 714.2L585.36 683.51L604.15 675.56Z" fill="#333333"/>
<path id="Vector_12" d="M482.12 107.95C498.562 107.95 511.89 91.1428 511.89 70.41C511.89 49.6772 498.562 32.87 482.12 32.87C465.679 32.87 452.35 49.6772 452.35 70.41C452.35 91.1428 465.679 107.95 482.12 107.95Z" fill="#DE8E68"/>
<path id="Vector_13" d="M460.44 3.35999C456.54 -2.00001 445.53 -0.790009 435.85 6.17999C432.186 8.76465 429.073 12.0516 426.69 15.85C426.375 15.7096 426.035 15.6315 425.69 15.62C420.99 15.62 342.86 57.41 343.6 76.69C344.34 95.97 370.55 126.89 379.7 132.82C379.7 132.82 420.99 113.54 418.77 107.35C416.55 101.16 392.77 81.35 388.6 77.43C393.5 74.87 432.72 36.01 437.15 31.61C441.8 30.6153 446.182 28.634 450 25.8C459.66 18.82 464.35 8.77999 460.44 3.35999Z" fill="#DE8E68"/>
<path id="Vector_14" d="M438 166.65C447 159.41 432.1 98.7 416.13 97.21C400.16 95.72 372.31 125.81 373.43 134.35C374.55 142.89 415.26 184.85 438 166.65Z" fill="#FCC486"/>
<path id="Vector_15" d="M402.27 312C402.27 322 407.27 668 416.27 698C424.27 702 445.27 703 452.27 700C459.27 697 503.94 317.48 503.94 300.82C503.94 284.16 402.27 312 402.27 312Z" fill="#655B97"/>
<path id="Vector_16" d="M581.61 687.19C572.06 672.19 447.71 380.91 437.96 309.09C448.17 301.18 524.15 288.57 530.3 302.93C536.45 317.29 610.3 672.32 607.77 676.93C605.24 681.54 588.79 688.73 581.61 687.19Z" fill="#574B90"/>
<path id="Vector_17" d="M482.54 119C547.04 119 543.04 297.5 529.04 308.5C515.04 319.5 405.54 320 398.54 312C391.54 304 375 119 482.54 119Z" fill="#FED385"/>
<path id="Vector_18" d="M529.47 57.66C529.47 50.05 522.2 44.56 522.2 40.34C522.2 36.12 524.69 28.56 519.12 23.15C512.35 16.58 501.56 19.32 491.9 19.32C482.82 19.32 477.81 8.77002 465.42 8.77002C457.16 8.77002 458.21 19.49 455.12 22.15C452.83 24.15 434.98 27.99 434.98 36.15C434.98 45.27 435.22 57.51 454.16 57.51C455.42 53.13 460.16 43.51 465.56 39.23C468.34 40.43 483.56 46.71 487.33 47.82C491.1 48.93 496.61 65.07 502.45 67.02C508.29 68.97 508.66 79.72 512.93 79.26C517.2 78.8 529.47 77 529.47 57.66Z" fill="#FD8369"/>
<path id="Vector_19" d="M507.75 81.24C512.096 81.24 515.62 77.7165 515.62 73.37C515.62 69.0235 512.096 65.5 507.75 65.5C503.404 65.5 499.88 69.0235 499.88 73.37C499.88 77.7165 503.404 81.24 507.75 81.24Z" fill="#DE8E68"/>
<path id="Vector_20" d="M497 133C495.74 137.35 469.29 132.07 469.8 127.15L474.32 83.45L506.19 90.31C506.19 90.31 498.28 128.67 497 133Z" fill="#DE8E68"/>
<path id="Vector_21" d="M677.16 156.44L565.31 710.91" stroke="#333333" stroke-width="7" stroke-miterlimit="10" stroke-linecap="round"/>
<path id="Vector_22" d="M659.22 309.44C656.24 306.427 652.395 304.417 648.22 303.69C634.88 282.16 589.55 215.8 569.56 191.69C555.15 202.04 537.56 220.14 537.56 220.14C544.91 228.38 599.96 293.51 629.25 319.05C629.233 321.725 629.756 324.377 630.787 326.846C631.818 329.315 633.336 331.551 635.25 333.42C642.66 340.84 654.04 341.48 660.66 334.87C667.28 328.26 666.63 316.86 659.22 309.44Z" fill="#DE8E68"/>
<path id="Vector_23" d="M507.87 148.25C533.74 129.02 576.39 175.52 575.69 187.75C574.99 199.98 542.21 227.1 531 227.13C517.31 227.15 485.85 164.62 507.87 148.25Z" fill="#FED892"/>
</g>
</g>
</g>
</g>
<defs>
<clipPath id="clip0">
<rect width="944.39" height="775.54" fill="white"/>
</clipPath>
</defs>
</svg>
