<svg width="1007" height="608" viewBox="0 0 1007 608" fill="none" xmlns="http://www.w3.org/2000/svg">
<g id="undraw_multitasking_hqg3 1">
<g clip-path="url(#clip0)">
<path id="Vector" d="M734.074 152.714C736.679 162.974 734.695 174.008 730.285 183.632C725.875 193.255 719.175 201.643 712.085 209.504C708.517 213.459 704.657 217.663 703.9 222.935C702.891 229.964 707.631 236.325 710.814 242.673C713.598 248.233 715.287 254.276 715.788 260.473C716.216 265.795 715.551 271.659 711.823 275.482C708.229 279.167 702.71 280.058 697.585 280.535C683.469 281.845 669.249 281.501 655.213 279.511C659.146 274.28 657.668 271.034 657.299 264.5C656.573 251.681 647.245 240.076 645.433 227.365C643.993 217.26 650.682 207.983 657.005 199.97L685.997 163.226C690.801 157.137 695.586 150.866 699.036 143.885C701.501 138.897 701.963 129.532 708.165 127.869C719.851 124.735 731.801 143.765 734.074 152.714Z" fill="#47465A"/>
<path id="Vector_2" d="M591.799 183C591.799 183 571.799 242 561.799 246C551.799 250 621.799 322 621.799 322L672.799 297L674.799 249L654.799 248C654.799 248 651.799 228 661.799 218C671.799 208 591.799 183 591.799 183Z" fill="#FBBEBE"/>
<path id="Vector_3" opacity="0.1" d="M591.799 183C591.799 183 571.799 242 561.799 246C551.799 250 621.799 322 621.799 322L672.799 297L674.799 249L654.799 248C654.799 248 651.799 228 661.799 218C671.799 208 591.799 183 591.799 183Z" fill="black"/>
<path id="Vector_4" d="M614.799 283C614.799 283 571.799 254 569.799 230C569.799 230 537.799 251 527.799 250C517.799 249 490.799 255 490.799 259C490.799 263 515.799 376 515.799 376C515.799 376 497.799 424 506.799 439C515.799 454 520.799 524 520.799 524H728.799C728.799 524 700.799 475 715.799 440C730.799 405 736.799 258 736.799 258C736.799 258 725.799 250 714.799 252C703.799 254 690.799 246 682.799 245C674.799 244 656.668 248.094 656.668 248.094L614.799 283Z" fill="#2856CD"/>
<path id="Vector_5" d="M1006.8 522.928V566.928C1006.8 574.672 1003.75 582.103 998.306 587.612C992.865 593.121 985.472 596.263 977.729 596.359L51.9117 607.789C49.6744 607.817 47.4539 607.4 45.3788 606.563C43.3038 605.726 41.4156 604.485 39.8238 602.912C38.2319 601.34 36.968 599.467 36.1053 597.403C35.2427 595.338 34.7985 593.123 34.7985 590.886V542.247C34.7985 537.893 36.4937 533.709 39.5249 530.583C42.5561 527.457 46.6853 525.633 51.0377 525.499L979.883 496.831C983.378 496.723 986.859 497.318 990.12 498.581C993.38 499.844 996.354 501.749 998.864 504.183C1001.37 506.617 1003.37 509.531 1004.73 512.751C1006.1 515.971 1006.8 519.432 1006.8 522.928V522.928Z" fill="#47465A"/>
<path id="Vector_6" opacity="0.1" d="M1006.8 555V566.928C1006.8 574.672 1003.75 582.103 998.306 587.612C992.865 593.121 985.472 596.263 977.729 596.359L51.9117 607.789C49.6744 607.817 47.4539 607.4 45.3788 606.563C43.3038 605.726 41.4156 604.485 39.8238 602.912C38.2319 601.34 36.968 599.467 36.1053 597.403C35.2427 595.338 34.7985 593.123 34.7985 590.886V589.32L1006.8 555Z" fill="black"/>
<path id="Vector_7" d="M824.799 524L707.659 508.801L499.362 516.4L574.799 540L824.799 524Z" fill="#F2F2F2"/>
<path id="Vector_8" d="M513.799 517V529L399.799 555L388.659 552.43L386.799 552L304.799 508L513.799 517Z" fill="#9493B6"/>
<path id="Vector_9" opacity="0.1" d="M513.799 517V529L399.799 555L388.659 552.43L386.799 540L513.799 517Z" fill="black"/>
<path id="Vector_10" d="M382.799 536C384.799 535 426.799 527 426.799 527L350.799 520L382.799 536Z" fill="#47465A"/>
<path id="Vector_11" d="M645.799 234C681.697 234 710.799 204.899 710.799 169C710.799 133.102 681.697 104 645.799 104C609.9 104 580.799 133.102 580.799 169C580.799 204.899 609.9 234 645.799 234Z" fill="#FBBEBE"/>
<path id="Vector_12" d="M456.799 463C456.799 463 398.799 488 384.799 481C370.799 474 328.799 456 315.799 493C305.315 522.838 366.515 524.712 390.6 524.319C393.512 524.272 396.379 523.593 399.003 522.329C401.627 521.065 403.946 519.247 405.799 517V517L489.299 488.5C489.299 488.5 470.799 457 456.799 463Z" fill="#FBBEBE"/>
<path id="Vector_13" d="M620.799 417L627.799 423L562.799 515C562.799 515 552.799 516 555.799 511L620.799 417Z" fill="#47465A"/>
<path id="Vector_14" d="M624.799 423L631.799 414L628.799 412L621.799 420L624.799 423Z" fill="#47465A"/>
<path id="Vector_15" d="M506.299 252.5C506.299 252.5 472.299 258.5 473.299 284.5C474.299 310.5 465.799 340 457.799 354C449.799 368 455.799 379 457.799 398C459.799 417 447.799 437 453.799 447C459.799 457 388.799 464 388.799 474C388.799 484 433.799 503 425.799 516C420.043 525.353 460.612 509.602 483.829 500.028C489.875 497.59 495.243 493.73 499.479 488.774C503.714 483.819 506.691 477.914 508.158 471.563C508.861 468.375 509.049 465.5 508.299 463.5C505.299 455.5 540.799 445 541.799 425C542.799 405 536.799 385 531.799 365C526.799 345 506.299 252.5 506.299 252.5Z" fill="#2856CD"/>
<path id="Vector_16" d="M10.7767 357.161L304.016 359.936C306.043 359.955 308.023 360.552 309.723 361.656C311.423 362.76 312.773 364.327 313.615 366.171L392.642 539.321C393.397 540.974 393.716 542.792 393.571 544.603C393.425 546.413 392.819 548.157 391.811 549.668C390.802 551.179 389.424 552.407 387.808 553.236C386.191 554.065 384.389 554.467 382.574 554.404L88.3054 544.225C86.3459 544.157 84.4431 543.551 82.806 542.472C81.169 541.393 79.8612 539.883 79.0264 538.109L1.02812 372.363C0.259753 370.73 -0.0816519 368.929 0.0358903 367.128C0.153432 365.328 0.726074 363.586 1.70018 362.067C2.67429 360.548 4.01799 359.301 5.60545 358.443C7.19292 357.585 8.97219 357.144 10.7767 357.161Z" fill="#7A799C"/>
<path id="Vector_17" d="M702.799 463C702.799 463 644.799 488 630.799 481C616.799 474 574.799 456 561.799 493C551.315 522.838 612.515 524.712 636.6 524.319C639.512 524.272 642.379 523.593 645.003 522.329C647.627 521.065 649.946 519.247 651.799 517V517L736.799 508C736.799 508 716.799 457 702.799 463Z" fill="#FBBEBE"/>
<path id="Vector_18" opacity="0.1" d="M737.299 273.5C737.299 273.5 751.799 254 758.799 272C765.799 290 764.799 360 764.799 360C764.799 360 776.799 395 772.799 418C768.799 441 776.799 444 776.799 444C776.799 444 778.799 454 772.799 459C766.799 464 762.799 486 764.799 489C766.799 492 761.799 511 757.799 511C753.799 511 745.299 509.5 745.299 509.5C745.299 509.5 724.799 472 681.799 469C681.799 469 688.799 459 684.799 439C680.799 419 737.299 273.5 737.299 273.5Z" fill="black"/>
<path id="Vector_19" d="M734.799 259C734.799 259 751.299 252.5 758.299 270.5C765.299 288.5 771.799 360 771.799 360C771.799 360 783.799 395 779.799 418C775.799 441 783.799 444 783.799 444C783.799 444 785.799 454 779.799 459C773.799 464 769.799 486 771.799 489C773.799 492 768.799 511 764.799 511C760.799 511 723.799 517 723.799 517C723.799 517 731.799 472 688.799 469C688.799 469 695.799 459 691.799 439C687.799 419 734.799 259 734.799 259Z" fill="#2856CD"/>
<path id="Vector_20" d="M667.573 77.2722C657.601 71.035 646.317 67.1996 634.61 66.0685C622.903 64.9373 611.093 66.5413 600.111 70.7541C588.339 75.3847 577.94 82.924 568.214 91.0144C560.412 97.5044 552.804 104.584 548.011 113.53C540.744 127.092 540.765 143.236 540.962 158.622C541.133 172.017 541.307 185.453 543.133 198.725C545.637 216.927 551.246 234.949 549.958 253.277C548.67 271.606 537.898 291.161 519.891 294.817C536.642 296.084 553.48 295.599 570.13 293.37C580.624 291.964 591.64 289.56 599.312 282.264C604.915 276.936 608.082 269.589 610.838 262.364C613.607 255.103 616.143 247.557 616.045 239.786C615.843 223.616 604.615 210.053 597.287 195.638C595.231 191.592 593.425 187.242 593.497 182.703C593.568 178.165 595.937 173.401 600.155 171.725C605.36 169.657 611.387 172.742 616.798 171.296C625.491 168.974 627.748 156.901 635.729 152.746C641.635 149.672 649.173 151.977 654.139 156.412C656.36 158.396 658.262 160.793 660.837 162.287C664.329 164.312 668.571 164.411 672.608 164.455C680.144 164.539 705.867 152.725 711.299 147.5C716.597 174.753 755.997 151.035 733.385 110.827C725.513 96.8275 715.07 83.8248 701.179 75.7617C687.288 67.6985 669.565 65.1976 654.982 71.9296" fill="#47465A"/>
<path id="Vector_21" d="M600.299 200.5C605.269 200.5 609.299 193.337 609.299 184.5C609.299 175.664 605.269 168.5 600.299 168.5C595.328 168.5 591.299 175.664 591.299 184.5C591.299 193.337 595.328 200.5 600.299 200.5Z" fill="#FBBEBE"/>
<path id="Vector_22" d="M688.799 246.519C688.799 246.519 744.299 254.5 747.299 258.5C750.299 262.5 744.299 286.5 744.299 286.5L704.299 293.5L673.519 286.862L688.799 246.519Z" fill="#2856CD"/>
<path id="Vector_23" opacity="0.1" d="M518.679 285.677C510.321 284.236 502.169 291.801 497.841 301.775C493.513 311.749 492.337 323.7 491.912 335.311C491.489 346.851 491.739 358.636 494.367 369.607C499.763 392.136 514.25 408.064 522.634 428.78C529.073 445.216 531.677 462.905 530.247 480.5" fill="black"/>
<path id="Vector_24" d="M524.679 285.677C516.321 284.236 508.169 291.801 503.841 301.775C499.513 311.749 498.337 323.7 497.912 335.311C497.489 346.851 497.739 358.636 500.367 369.607C505.763 392.136 520.25 408.064 528.634 428.78C535.073 445.216 537.677 462.905 536.247 480.5" fill="#2856CD"/>
<path id="Vector_25" d="M846.099 509.119L942.837 547.814L1003.3 536.931L998.026 493.653L997.252 487.353L895.678 455.913L888.422 463.168L846.099 509.119Z" fill="#2856CD"/>
<path id="Vector_26" opacity="0.1" d="M901.724 463.616V505.491L1003.3 536.931L998.026 493.653L901.724 463.616Z" fill="black"/>
<path id="Vector_27" d="M808.219 518.162L815.065 520.697L896.711 550.934L903.056 553.284C903.255 553.359 903.47 553.385 903.682 553.36C903.894 553.335 904.097 553.26 904.273 553.14L911.75 548.127L989.528 495.946L996.876 491.018C997.088 490.876 997.255 490.677 997.359 490.443C997.462 490.209 997.497 489.951 997.459 489.699C997.422 489.446 997.314 489.209 997.147 489.015C996.98 488.822 996.762 488.68 996.518 488.605L984.801 485.017L902.44 459.786L895.249 457.58C895.057 457.52 894.853 457.505 894.653 457.534C894.454 457.564 894.263 457.638 894.096 457.752L888.431 461.569L815.051 510.986L807.94 515.777C807.733 515.915 807.569 516.108 807.466 516.333C807.362 516.558 807.322 516.808 807.351 517.055C807.38 517.301 807.476 517.535 807.629 517.73C807.782 517.926 807.986 518.075 808.219 518.162V518.162Z" fill="#7A799C"/>
<path id="Vector_28" d="M976.677 495.519L903.799 545.084C903.447 545.323 903.043 545.475 902.62 545.528C902.198 545.581 901.769 545.532 901.369 545.386L823.999 517.14C823.529 516.967 823.115 516.666 822.806 516.272C822.496 515.877 822.302 515.404 822.245 514.906C822.188 514.408 822.271 513.903 822.484 513.45C822.697 512.996 823.033 512.61 823.452 512.335L893.992 466.303C894.322 466.087 894.696 465.947 895.087 465.892C895.478 465.837 895.876 465.87 896.253 465.986L975.962 490.7C976.447 490.852 976.88 491.138 977.21 491.524C977.54 491.91 977.755 492.382 977.83 492.885C977.904 493.388 977.836 493.902 977.632 494.368C977.428 494.833 977.097 495.232 976.677 495.519Z" fill="#F2F2F2"/>
<path id="Vector_29" d="M984.801 485.017V495.946H989.528L996.876 491.019C997.088 490.876 997.255 490.677 997.359 490.443C997.462 490.209 997.497 489.951 997.459 489.699C997.422 489.446 997.314 489.209 997.147 489.015C996.98 488.822 996.762 488.68 996.518 488.605L984.801 485.017Z" fill="#2856CD"/>
<path id="Vector_30" d="M896.71 547.511V550.934L903.056 553.284C903.255 553.359 903.47 553.385 903.682 553.36C903.894 553.335 904.097 553.26 904.273 553.14L911.75 548.127V547.511H896.71Z" fill="#2856CD"/>
<path id="Vector_31" d="M808.219 518.162L815.065 520.697V510.986H815.051L807.94 515.777C807.733 515.915 807.569 516.108 807.466 516.333C807.362 516.558 807.322 516.808 807.351 517.055C807.38 517.301 807.476 517.535 807.629 517.73C807.782 517.926 807.986 518.075 808.219 518.162V518.162Z" fill="#2856CD"/>
<path id="Vector_32" d="M888.431 461.569H902.44V459.786L895.249 457.58C895.057 457.52 894.853 457.505 894.653 457.534C894.454 457.564 894.263 457.638 894.096 457.752L888.431 461.569Z" fill="#2856CD"/>
<path id="Vector_33" d="M857.799 486C858.351 486 858.799 485.552 858.799 485C858.799 484.448 858.351 484 857.799 484C857.246 484 856.799 484.448 856.799 485C856.799 485.552 857.246 486 857.799 486Z" fill="#F2F2F2"/>
<path id="Vector_34" d="M432.669 26H34.669V228H432.669V26Z" fill="#F2F2F2"/>
<path id="Vector_35" d="M433 26H35V228H433V26Z" stroke="#3F3D56" stroke-miterlimit="10"/>
<g id="grafico">
<g id="Group" opacity="0.1">
<path id="Vector_36" opacity="0.1" d="M225.383 165.297C225.398 165.551 225.424 165.8 225.462 166.043C228.386 165.206 231.257 164.305 234.074 163.342C235.577 163.198 236.974 162.707 238.054 161.943C238.878 161.645 239.697 161.335 240.509 161.024C240.325 160.745 240.117 160.474 239.885 160.214C238.302 158.417 235.897 157.294 233.247 157.356C230.597 157.418 228.304 158.653 226.886 160.514C225.799 161.983 225.28 163.635 225.383 165.297V165.297Z" fill="#3F3D56"/>
<path id="Vector_37" opacity="0.1" d="M224.951 155.851C225.007 157.507 225.675 159.121 226.886 160.53C228.473 162.321 230.878 163.444 233.529 163.382C233.713 163.382 233.904 163.363 234.074 163.353C235.577 163.209 236.974 162.718 238.054 161.953C238.787 161.452 239.405 160.87 239.885 160.23C240.946 158.76 241.463 157.118 241.388 155.463C241.313 153.807 240.648 152.194 239.456 150.776C237.87 148.979 235.464 147.856 232.814 147.918C230.164 147.98 227.875 149.214 226.458 151.076C225.372 152.542 224.851 154.191 224.951 155.851V155.851Z" fill="#3F3D56"/>
<path id="Vector_38" opacity="0.1" d="M233.095 153.937C237.633 153.83 241.153 150.282 240.958 146.014C240.763 141.745 236.927 138.371 232.389 138.478C227.851 138.585 224.33 142.132 224.525 146.401C224.72 150.67 228.557 154.044 233.095 153.937Z" fill="#3F3D56"/>
<path id="Vector_39" opacity="0.1" d="M232.664 144.492C237.202 144.385 240.722 140.838 240.527 136.569C240.332 132.3 236.496 128.927 231.958 129.034C227.42 129.141 223.899 132.688 224.094 136.957C224.289 141.226 228.126 144.6 232.664 144.492Z" fill="#3F3D56"/>
<path id="Vector_40" opacity="0.1" d="M232.233 135.045C236.771 134.938 240.291 131.391 240.096 127.122C239.901 122.853 236.065 119.48 231.527 119.587C226.989 119.694 223.468 123.241 223.663 127.51C223.858 131.779 227.695 135.152 232.233 135.045Z" fill="#3F3D56"/>
<path id="Vector_41" opacity="0.1" d="M259.698 61.9547C260.774 60.9016 261.746 59.796 262.608 58.6457L240.904 56.609L264.254 56.1822C266.334 52.6285 267.383 48.8072 267.336 44.9522C267.29 41.0971 266.149 37.2894 263.984 33.7622L233.194 46.1743L261.386 30.2371C258.516 26.9559 254.738 24.1333 250.288 21.9445C245.837 19.7557 240.808 18.2472 235.512 17.5128C230.216 16.7783 224.767 16.8334 219.503 17.6747C214.238 18.516 209.27 20.1255 204.906 22.4035C200.543 24.6815 196.878 27.5794 194.137 30.9174C191.397 34.2554 189.639 37.9624 188.975 41.8085C188.31 45.6546 188.752 49.5579 190.274 53.2761C191.795 56.9944 194.363 60.4485 197.818 63.4242C196.143 65.0637 194.718 66.8278 193.567 68.6861L222.064 78.4861L191.857 71.987C189.963 76.4928 189.662 81.2669 190.982 85.8772C192.302 90.4876 195.201 94.7887 199.416 98.3913C195.043 102.671 192.434 107.748 191.887 113.043C191.34 118.338 192.878 123.637 196.324 128.334C199.771 133.03 204.986 136.935 211.376 139.602C217.765 142.269 225.069 143.59 232.454 143.414C239.838 143.238 247.005 141.573 253.134 138.608C259.264 135.643 264.109 131.499 267.115 126.649C270.122 121.799 271.168 116.439 270.135 111.181C269.102 105.924 266.031 100.981 261.273 96.9191C266.502 91.8076 269.19 85.5818 268.904 79.2411C268.619 72.9004 265.377 66.8125 259.698 61.9547V61.9547Z" fill="#2856CD"/>
<path id="Vector_42" opacity="0.1" d="M190.195 81.0955C190.47 87.4401 193.719 93.532 199.416 98.3832C195.042 102.662 192.431 107.739 191.883 113.034C191.335 118.329 192.871 123.628 196.316 128.325C199.762 133.022 204.976 136.928 211.365 139.595C217.753 142.263 225.057 143.585 232.442 143.41C239.827 143.235 246.994 141.571 253.124 138.607C259.254 135.643 264.1 131.499 267.108 126.65C270.116 121.8 271.163 116.44 270.132 111.182C269.1 105.925 266.03 100.982 261.273 96.9191C266.329 91.9867 190.052 77.9215 190.195 81.0955Z" fill="black"/>
</g>
<g id="Group_2" opacity="0.1">
<path id="Vector_43" opacity="0.1" d="M139.182 215.056C139.182 215.235 139.156 215.413 139.126 215.597C137.046 215.002 135.002 214.366 132.995 213.687C131.926 213.586 130.931 213.238 130.161 212.696C129.574 212.481 128.992 212.263 128.413 212.042C128.544 211.844 128.692 211.653 128.857 211.469C129.984 210.189 131.691 209.389 133.578 209.433C135.465 209.476 137.096 210.351 138.089 211.675C138.866 212.712 139.243 213.879 139.182 215.056V215.056Z" fill="#3F3D56"/>
<path id="Vector_44" opacity="0.1" d="M139.476 208.333C139.439 209.511 138.966 210.66 138.107 211.664C136.98 212.939 135.269 213.741 133.386 213.698L133.01 213.676C131.941 213.576 130.946 213.228 130.176 212.685C129.653 212.328 129.213 211.915 128.872 211.458C128.118 210.413 127.749 209.246 127.8 208.069C127.851 206.892 128.321 205.745 129.165 204.735C130.292 203.455 132.003 202.655 133.886 202.698C135.769 202.742 137.404 203.617 138.416 204.94C139.183 205.983 139.549 207.155 139.476 208.333Z" fill="#3F3D56"/>
<path id="Vector_45" opacity="0.1" d="M139.779 201.622C139.913 198.585 137.404 196.063 134.175 195.99C130.946 195.917 128.221 198.319 128.087 201.357C127.954 204.394 130.463 206.916 133.691 206.989C136.92 207.062 139.646 204.66 139.779 201.622Z" fill="#3F3D56"/>
<path id="Vector_46" opacity="0.1" d="M140.071 194.9C140.205 191.863 137.696 189.341 134.467 189.268C131.239 189.194 128.513 191.597 128.379 194.635C128.246 197.672 130.755 200.194 133.983 200.267C137.212 200.34 139.938 197.937 140.071 194.9Z" fill="#3F3D56"/>
<path id="Vector_47" opacity="0.1" d="M140.367 188.175C140.501 185.138 137.992 182.616 134.763 182.543C131.534 182.47 128.809 184.872 128.675 187.91C128.542 190.947 131.051 193.469 134.279 193.542C137.508 193.615 140.234 191.213 140.367 188.175Z" fill="#3F3D56"/>
<path id="Vector_48" opacity="0.1" d="M114.648 141.535C113.881 140.786 113.187 139.999 112.569 139.182L128.011 137.707L111.392 137.437C109.907 134.909 109.156 132.19 109.184 129.446C109.213 126.701 110.02 123.99 111.558 121.479L133.484 130.293L113.403 118.961C115.436 116.615 118.118 114.595 121.283 113.026C124.449 111.457 128.03 110.374 131.803 109.842C135.577 109.311 139.462 109.344 143.218 109.938C146.973 110.533 150.518 111.676 153.631 113.297C156.745 114.919 159.361 116.983 161.317 119.363C163.272 121.742 164.525 124.385 164.997 127.127C165.47 129.87 165.152 132.652 164.063 135.303C162.974 137.953 161.138 140.414 158.669 142.532C159.865 143.697 160.882 144.953 161.702 146.276L141.434 153.266L162.924 148.62C164.277 151.826 164.496 155.224 163.563 158.507C162.63 161.789 160.573 164.853 157.579 167.421C160.697 170.463 162.562 174.074 162.959 177.842C163.356 181.61 162.269 185.382 159.824 188.727C157.378 192.072 153.672 194.855 149.129 196.758C144.586 198.661 139.39 199.606 134.135 199.487C128.879 199.368 123.776 198.188 119.41 196.083C115.043 193.978 111.589 191.032 109.442 187.583C107.295 184.134 106.542 180.32 107.269 176.578C107.996 172.836 110.174 169.316 113.554 166.421C109.827 162.786 107.909 158.356 108.107 153.843C108.306 149.331 110.609 144.997 114.648 141.538V141.535Z" fill="#2856CD"/>
<path id="Vector_49" opacity="0.1" d="M164.116 155.111C163.927 159.626 161.624 163.963 157.579 167.421C160.697 170.463 162.562 174.074 162.959 177.842C163.356 181.61 162.269 185.382 159.824 188.727C157.378 192.072 153.672 194.855 149.129 196.758C144.586 198.661 139.39 199.606 134.135 199.487C128.879 199.368 123.776 198.188 119.41 196.083C115.043 193.978 111.589 191.032 109.442 187.583C107.295 184.134 106.542 180.32 107.269 176.578C107.996 172.836 110.174 169.316 113.554 166.421C109.949 162.91 164.221 152.85 164.116 155.111Z" fill="black"/>
</g>
<g id="Group_3" opacity="0.1">
<path id="Vector_50" opacity="0.1" d="M334.938 179.927C334.938 180.108 334.912 180.284 334.885 180.467C332.803 179.873 330.759 179.237 328.754 178.558C327.684 178.457 326.688 178.109 325.916 177.566C325.334 177.353 324.747 177.134 324.168 176.913C324.3 176.716 324.449 176.524 324.612 176.34C325.74 175.06 327.446 174.26 329.333 174.303C331.22 174.347 332.852 175.222 333.844 176.545C334.621 177.583 334.999 178.75 334.938 179.927V179.927Z" fill="#3F3D56"/>
<path id="Vector_51" opacity="0.1" d="M335.254 173.204C335.215 174.382 334.742 175.531 333.882 176.534C332.754 177.809 331.047 178.612 329.16 178.569L328.784 178.547C327.714 178.446 326.718 178.098 325.946 177.556C325.425 177.198 324.985 176.784 324.642 176.329C323.888 175.284 323.519 174.117 323.571 172.94C323.622 171.763 324.092 170.615 324.935 169.606C326.063 168.328 327.773 167.526 329.656 167.569C331.54 167.612 333.179 168.488 334.186 169.811C334.956 170.853 335.325 172.025 335.254 173.204V173.204Z" fill="#3F3D56"/>
<path id="Vector_52" opacity="0.1" d="M335.547 166.491C335.681 163.454 333.172 160.932 329.943 160.859C326.714 160.785 323.989 163.188 323.855 166.225C323.722 169.263 326.231 171.784 329.459 171.858C332.688 171.931 335.414 169.528 335.547 166.491Z" fill="#3F3D56"/>
<path id="Vector_53" opacity="0.1" d="M335.843 159.769C335.977 156.731 333.468 154.21 330.239 154.136C327.01 154.063 324.285 156.466 324.151 159.503C324.018 162.541 326.527 165.062 329.755 165.136C332.984 165.209 335.71 162.806 335.843 159.769Z" fill="#3F3D56"/>
<path id="Vector_54" opacity="0.1" d="M336.139 153.047C336.273 150.009 333.764 147.488 330.535 147.414C327.306 147.341 324.581 149.744 324.447 152.781C324.313 155.819 326.823 158.34 330.051 158.414C333.28 158.487 336.006 156.084 336.139 153.047Z" fill="#3F3D56"/>
<path id="Vector_55" opacity="0.1" d="M310.403 106.406C309.636 105.657 308.942 104.871 308.328 104.053L323.77 102.592L307.152 102.303C305.667 99.7745 304.916 97.0553 304.944 94.3113C304.971 91.5674 305.778 88.8563 307.313 86.3439L329.239 95.158L309.159 83.8318C311.187 81.4802 313.869 79.4542 317.035 77.8802C320.202 76.3062 323.786 75.218 327.563 74.6835C331.341 74.149 335.231 74.1797 338.992 74.7735C342.752 75.3674 346.302 76.5118 349.42 78.1353C352.538 79.7588 355.157 81.8265 357.113 84.2095C359.069 86.5925 360.321 89.2397 360.791 91.9858C361.26 94.732 360.937 97.5182 359.842 100.171C358.747 102.823 356.902 105.285 354.424 107.403C355.619 108.568 356.635 109.824 357.454 111.146L337.186 118.137L358.676 113.491C360.03 116.697 360.251 120.094 359.318 123.377C358.384 126.659 356.326 129.722 353.33 132.289C356.449 135.33 358.314 138.942 358.712 142.709C359.109 146.477 358.023 150.248 355.578 153.593C353.133 156.938 349.428 159.721 344.885 161.624C340.343 163.527 335.147 164.473 329.892 164.353C324.636 164.234 319.534 163.054 315.168 160.949C310.802 158.844 307.348 155.899 305.201 152.449C303.055 149 302.303 145.187 303.031 141.445C303.758 137.703 305.937 134.183 309.317 131.289C305.59 127.654 303.672 123.224 303.87 118.711C304.069 114.199 306.372 109.865 310.411 106.406H310.403Z" fill="#2856CD"/>
<path id="Vector_56" opacity="0.1" d="M359.875 119.982C359.687 124.497 357.382 128.833 353.334 132.289C356.453 135.331 358.317 138.942 358.714 142.709C359.111 146.476 358.025 150.248 355.58 153.593C353.134 156.937 349.429 159.72 344.887 161.623C340.344 163.525 335.149 164.471 329.894 164.352C324.639 164.232 319.537 163.053 315.17 160.948C310.804 158.843 307.351 155.898 305.204 152.449C303.058 149 302.305 145.186 303.032 141.445C303.76 137.703 305.937 134.184 309.317 131.289C305.708 127.78 359.973 117.718 359.875 119.982Z" fill="black"/>
</g>
<path id="Vector_57" d="M146.821 156.616V217.663C140.616 217.445 134.415 217.183 128.218 216.877L125.395 216.734V156.616C125.395 156.303 125.48 155.993 125.647 155.704C125.814 155.415 126.058 155.152 126.366 154.931C126.673 154.71 127.039 154.534 127.441 154.415C127.843 154.295 128.275 154.233 128.71 154.233H143.505C143.941 154.233 144.372 154.295 144.774 154.415C145.176 154.534 145.542 154.71 145.85 154.931C146.157 155.152 146.402 155.415 146.568 155.704C146.735 155.993 146.821 156.303 146.821 156.616V156.616Z" fill="#3F3D56"/>
<path id="Vector_58" d="M174.261 218.422V115.828C174.261 115.196 174.61 114.59 175.232 114.143C175.854 113.696 176.697 113.445 177.576 113.445H192.372C192.807 113.445 193.238 113.507 193.64 113.626C194.043 113.746 194.408 113.922 194.716 114.143C195.024 114.364 195.268 114.627 195.435 114.916C195.601 115.205 195.687 115.515 195.687 115.828V218.69L174.261 218.422Z" fill="#3F3D56"/>
<path id="Vector_59" d="M223.128 218.744V137.167C223.128 136.535 223.477 135.929 224.099 135.482C224.72 135.036 225.564 134.785 226.443 134.785H241.238C242.117 134.785 242.961 135.036 243.583 135.482C244.204 135.929 244.554 136.535 244.554 137.167V218.568L223.128 218.744Z" fill="#3F3D56"/>
<path id="Vector_60" d="M293.42 76.6601V217.758C286.278 217.903 279.136 218.04 271.994 218.168V76.6601C271.994 76.0282 272.343 75.4222 272.965 74.9754C273.587 74.5286 274.43 74.2776 275.309 74.2776H290.105C290.984 74.2776 291.827 74.5286 292.449 74.9754C293.071 75.4222 293.42 76.0282 293.42 76.6601V76.6601Z" fill="#3F3D56"/>
<path id="Vector_61" d="M342.287 105.023V216.583C335.145 216.831 328.003 217.007 320.861 217.163V105.023C320.861 104.391 321.21 103.785 321.832 103.338C322.453 102.891 323.297 102.64 324.176 102.64H338.971C339.851 102.64 340.694 102.891 341.316 103.338C341.937 103.785 342.287 104.391 342.287 105.023V105.023Z" fill="#3F3D56"/>
<path id="Vector_62" d="M136.296 121.014L185.162 81.8464L234.029 101.565L282.895 41.0582L331.762 69.9611" stroke="#3F3D56" stroke-width="7" stroke-miterlimit="10" stroke-linecap="round"/>
<path id="Vector_63" d="M136.108 128.577C141.92 128.577 146.633 125.191 146.633 121.014C146.633 116.837 141.92 113.451 136.108 113.451C130.295 113.451 125.582 116.837 125.582 121.014C125.582 125.191 130.295 128.577 136.108 128.577Z" fill="#6C63FF"/>
<path id="Vector_64" d="M184.974 89.4098C190.787 89.4098 195.499 86.0235 195.499 81.8464C195.499 77.6693 190.787 74.283 184.974 74.283C179.161 74.283 174.449 77.6693 174.449 81.8464C174.449 86.0235 179.161 89.4098 184.974 89.4098Z" fill="#6C63FF"/>
<path id="Vector_65" d="M233.841 109.129C239.653 109.129 244.366 105.742 244.366 101.565C244.366 97.3881 239.653 94.0018 233.841 94.0018C228.028 94.0018 223.315 97.3881 223.315 101.565C223.315 105.742 228.028 109.129 233.841 109.129Z" fill="#6C63FF"/>
<path id="Vector_66" d="M282.707 48.6215C288.52 48.6215 293.232 45.2353 293.232 41.0582C293.232 36.881 288.52 33.4948 282.707 33.4948C276.894 33.4948 272.182 36.881 272.182 41.0582C272.182 45.2353 276.894 48.6215 282.707 48.6215Z" fill="#6C63FF"/>
<path id="Vector_67" d="M336.46 80.1149C342.273 80.1149 346.985 76.7287 346.985 72.5515C346.985 68.3744 342.273 64.9882 336.46 64.9882C330.647 64.9882 325.935 68.3744 325.935 72.5515C325.935 76.7287 330.647 80.1149 336.46 80.1149Z" fill="#6C63FF"/>
</g>
</g>
</g>
<defs>
<clipPath id="clip0">
<rect width="1006.8" height="607.79" fill="white"/>
</clipPath>
</defs>
</svg>
